HIERARCHY
ROOT mixamorig:Hips
{
	OFFSET -0.000008 104.274872 1.554316
	CHANNELS 6 Xposition Yposition Zposition Xrotation Yrotation Zrotation
	JOINT mixamorig:Spine
	{
		OFFSET -0.000005 10.181595 0.131519
		CHANNELS 6 Xposition Yposition Zposition Xrotation Yrotation Zrotation
		JOINT mixamorig:Spine1
		{
			OFFSET -0.000000 9.893959 -1.470707
			CHANNELS 6 Xposition Yposition Zposition Xrotation Yrotation Zrotation
			JOINT mixamorig:Spine2
			{
				OFFSET -0.000000 9.220757 -1.370641
				CHANNELS 6 Xposition Yposition Zposition Xrotation Yrotation Zrotation
				JOINT mixamorig:Neck
				{
					OFFSET 0.000001 16.740417 -2.049036
					CHANNELS 6 Xposition Yposition Zposition Xrotation Yrotation Zrotation
					JOINT mixamorig:Head
					{
						OFFSET 0.000000 9.617874 1.685006
						CHANNELS 6 Xposition Yposition Zposition Xrotation Yrotation Zrotation
						JOINT mixamorig:HeadTop_End
						{
							OFFSET 0.000002 22.037354 7.501101
							CHANNELS 6 Xposition Yposition Zposition Xrotation Yrotation Zrotation
							End Site
							{
								OFFSET 0.000168 2310.654297 -282.823242
							}
						}
					}
				}
				JOINT mixamorig:RightShoulder
				{
					OFFSET -4.569970 11.014908 -2.160885
					CHANNELS 6 Xposition Yposition Zposition Xrotation Yrotation Zrotation
					JOINT mixamorig:RightArm
					{
						OFFSET -10.592851 -0.524811 -2.232101
						CHANNELS 6 Xposition Yposition Zposition Xrotation Yrotation Zrotation
						JOINT mixamorig:RightForeArm
						{
							OFFSET -27.841511 0.000031 -0.000004
							CHANNELS 6 Xposition Yposition Zposition Xrotation Yrotation Zrotation
							JOINT mixamorig:RightHand
							{
								OFFSET -28.328831 -0.000015 0.000015
								CHANNELS 6 Xposition Yposition Zposition Xrotation Yrotation Zrotation
								JOINT mixamorig:RightHandThumb1
								{
									OFFSET -2.464806 -1.573990 2.681852
									CHANNELS 6 Xposition Yposition Zposition Xrotation Yrotation Zrotation
									JOINT mixamorig:RightHandThumb2
									{
										OFFSET -3.215179 -1.872803 1.924282
										CHANNELS 6 Xposition Yposition Zposition Xrotation Yrotation Zrotation
										JOINT mixamorig:RightHandThumb3
										{
											OFFSET -2.654831 -1.527969 1.512609
											CHANNELS 6 Xposition Yposition Zposition Xrotation Yrotation Zrotation
											JOINT mixamorig:RightHandThumb4
											{
												OFFSET -2.018814 -1.152008 1.108052
												CHANNELS 6 Xposition Yposition Zposition Xrotation Yrotation Zrotation
												End Site
												{
													OFFSET -188.809540 -114.533607 132.431396
												}
											}
										}
									}
								}
								JOINT mixamorig:RightHandIndex1
								{
									OFFSET -9.108284 -0.517868 2.259835
									CHANNELS 6 Xposition Yposition Zposition Xrotation Yrotation Zrotation
									JOINT mixamorig:RightHandIndex2
									{
										OFFSET -3.699989 0.000000 0.001215
										CHANNELS 6 Xposition Yposition Zposition Xrotation Yrotation Zrotation
										JOINT mixamorig:RightHandIndex3
										{
											OFFSET -2.850006 0.000031 -0.000522
											CHANNELS 6 Xposition Yposition Zposition Xrotation Yrotation Zrotation
											JOINT mixamorig:RightHandIndex4
											{
												OFFSET -2.772186 -0.000015 -0.000020
												CHANNELS 6 Xposition Yposition Zposition Xrotation Yrotation Zrotation
												End Site
												{
													OFFSET -277.218445 0.000000 -0.050231
												}
											}
										}
									}
								}
								JOINT mixamorig:RightHandMiddle1
								{
									OFFSET -9.532516 -0.000031 -0.000023
									CHANNELS 6 Xposition Yposition Zposition Xrotation Yrotation Zrotation
									JOINT mixamorig:RightHandMiddle2
									{
										OFFSET -3.700005 -0.000015 0.003713
										CHANNELS 6 Xposition Yposition Zposition Xrotation Yrotation Zrotation
										JOINT mixamorig:RightHandMiddle3
										{
											OFFSET -2.949974 0.000015 -0.002054
											CHANNELS 6 Xposition Yposition Zposition Xrotation Yrotation Zrotation
											JOINT mixamorig:RightHandMiddle4
											{
												OFFSET -2.946640 0.000000 -0.000156
												CHANNELS 6 Xposition Yposition Zposition Xrotation Yrotation Zrotation
												End Site
												{
													OFFSET -294.664337 0.000000 -0.113670
												}
											}
										}
									}
								}
								JOINT mixamorig:RightHandRing1
								{
									OFFSET -9.103600 -0.043076 -1.865134
									CHANNELS 6 Xposition Yposition Zposition Xrotation Yrotation Zrotation
									JOINT mixamorig:RightHandRing2
									{
										OFFSET -3.379288 0.000000 -0.001055
										CHANNELS 6 Xposition Yposition Zposition Xrotation Yrotation Zrotation
										JOINT mixamorig:RightHandRing3
										{
											OFFSET -2.889687 -0.000015 0.000379
											CHANNELS 6 Xposition Yposition Zposition Xrotation Yrotation Zrotation
											JOINT mixamorig:RightHandRing4
											{
												OFFSET -2.638809 -0.000015 0.000941
												CHANNELS 6 Xposition Yposition Zposition Xrotation Yrotation Zrotation
												End Site
												{
													OFFSET -263.880371 0.000000 0.516020
												}
											}
										}
									}
								}
								JOINT mixamorig:RightHandPinky1
								{
									OFFSET -8.076683 -0.486710 -3.806280
									CHANNELS 6 Xposition Yposition Zposition Xrotation Yrotation Zrotation
									JOINT mixamorig:RightHandPinky2
									{
										OFFSET -3.600014 -0.000015 -0.003747
										CHANNELS 6 Xposition Yposition Zposition Xrotation Yrotation Zrotation
										JOINT mixamorig:RightHandPinky3
										{
											OFFSET -2.099983 0.000000 -0.005739
											CHANNELS 6 Xposition Yposition Zposition Xrotation Yrotation Zrotation
											JOINT mixamorig:RightHandPinky4
											{
												OFFSET -2.115768 -0.000031 -0.003680
												CHANNELS 6 Xposition Yposition Zposition Xrotation Yrotation Zrotation
												End Site
												{
													OFFSET -211.577087 0.000000 -0.350686
												}
											}
										}
									}
								}
							}
						}
					}
				}
				JOINT mixamorig:LeftShoulder
				{
					OFFSET 4.570447 11.014725 -2.160855
					CHANNELS 6 Xposition Yposition Zposition Xrotation Yrotation Zrotation
					JOINT mixamorig:LeftArm
					{
						OFFSET 10.592371 -0.524597 -2.232119
						CHANNELS 6 Xposition Yposition Zposition Xrotation Yrotation Zrotation
						JOINT mixamorig:LeftForeArm
						{
							OFFSET 27.841532 -0.000031 0.000026
							CHANNELS 6 Xposition Yposition Zposition Xrotation Yrotation Zrotation
							JOINT mixamorig:LeftHand
							{
								OFFSET 28.328846 -0.000061 0.000022
								CHANNELS 6 Xposition Yposition Zposition Xrotation Yrotation Zrotation
								JOINT mixamorig:LeftHandThumb1
								{
									OFFSET 2.466141 -1.576172 2.681732
									CHANNELS 6 Xposition Yposition Zposition Xrotation Yrotation Zrotation
									JOINT mixamorig:LeftHandThumb2
									{
										OFFSET 3.217812 -1.872070 1.916482
										CHANNELS 6 Xposition Yposition Zposition Xrotation Yrotation Zrotation
										JOINT mixamorig:LeftHandThumb3
										{
											OFFSET 2.656029 -1.528778 1.514513
											CHANNELS 6 Xposition Yposition Zposition Xrotation Yrotation Zrotation
											JOINT mixamorig:LeftHandThumb4
											{
												OFFSET 2.020889 -1.154053 1.115139
												CHANNELS 6 Xposition Yposition Zposition Xrotation Yrotation Zrotation
												End Site
												{
													OFFSET 190.885437 -115.081749 130.048782
												}
											}
										}
									}
								}
								JOINT mixamorig:LeftHandIndex1
								{
									OFFSET 9.109314 -0.518021 2.259871
									CHANNELS 6 Xposition Yposition Zposition Xrotation Yrotation Zrotation
									JOINT mixamorig:LeftHandIndex2
									{
										OFFSET 3.699989 0.000000 -0.000322
										CHANNELS 6 Xposition Yposition Zposition Xrotation Yrotation Zrotation
										JOINT mixamorig:LeftHandIndex3
										{
											OFFSET 2.850006 0.000000 0.000352
											CHANNELS 6 Xposition Yposition Zposition Xrotation Yrotation Zrotation
											JOINT mixamorig:LeftHandIndex4
											{
												OFFSET 2.774864 -0.000031 -0.000027
												CHANNELS 6 Xposition Yposition Zposition Xrotation Yrotation Zrotation
												End Site
												{
													OFFSET 277.486267 0.000000 -0.009857
												}
											}
										}
									}
								}
								JOINT mixamorig:LeftHandMiddle1
								{
									OFFSET 9.533394 0.000061 0.000044
									CHANNELS 6 Xposition Yposition Zposition Xrotation Yrotation Zrotation
									JOINT mixamorig:LeftHandMiddle2
									{
										OFFSET 3.699989 -0.000015 -0.000231
										CHANNELS 6 Xposition Yposition Zposition Xrotation Yrotation Zrotation
										JOINT mixamorig:LeftHandMiddle3
										{
											OFFSET 2.949997 -0.000015 -0.000059
											CHANNELS 6 Xposition Yposition Zposition Xrotation Yrotation Zrotation
											JOINT mixamorig:LeftHandMiddle4
											{
												OFFSET 2.952896 0.000031 0.000063
												CHANNELS 6 Xposition Yposition Zposition Xrotation Yrotation Zrotation
												End Site
												{
													OFFSET 295.289337 0.000000 0.022810
												}
											}
										}
									}
								}
								JOINT mixamorig:LeftHandRing1
								{
									OFFSET 9.104523 -0.042999 -1.865074
									CHANNELS 6 Xposition Yposition Zposition Xrotation Yrotation Zrotation
									JOINT mixamorig:LeftHandRing2
									{
										OFFSET 3.150009 -0.000031 0.000043
										CHANNELS 6 Xposition Yposition Zposition Xrotation Yrotation Zrotation
										JOINT mixamorig:LeftHandRing3
										{
											OFFSET 2.949982 -0.000015 0.000040
											CHANNELS 6 Xposition Yposition Zposition Xrotation Yrotation Zrotation
											JOINT mixamorig:LeftHandRing4
											{
												OFFSET 2.644348 0.000000 0.000057
												CHANNELS 6 Xposition Yposition Zposition Xrotation Yrotation Zrotation
												End Site
												{
													OFFSET 264.434631 0.000000 0.012105
												}
											}
										}
									}
								}
								JOINT mixamorig:LeftHandPinky1
								{
									OFFSET 8.077789 -0.486847 -3.806259
									CHANNELS 6 Xposition Yposition Zposition Xrotation Yrotation Zrotation
									JOINT mixamorig:LeftHandPinky2
									{
										OFFSET 3.599953 0.000031 0.014727
										CHANNELS 6 Xposition Yposition Zposition Xrotation Yrotation Zrotation
										JOINT mixamorig:LeftHandPinky3
										{
											OFFSET 2.100021 0.000015 0.007705
											CHANNELS 6 Xposition Yposition Zposition Xrotation Yrotation Zrotation
											JOINT mixamorig:LeftHandPinky4
											{
												OFFSET 2.125504 0.000031 0.007517
												CHANNELS 6 Xposition Yposition Zposition Xrotation Yrotation Zrotation
												End Site
												{
													OFFSET 212.550781 0.000000 0.625752
												}
											}
										}
									}
								}
							}
						}
					}
				}
			}
		}
	}
	JOINT mixamorig:RightUpLeg
	{
		OFFSET -8.207787 -6.751648 -1.599560
		CHANNELS 6 Xposition Yposition Zposition Xrotation Yrotation Zrotation
		JOINT mixamorig:RightLeg
		{
			OFFSET -0.000002 -44.370117 0.345942
			CHANNELS 6 Xposition Yposition Zposition Xrotation Yrotation Zrotation
			JOINT mixamorig:RightFoot
			{
				OFFSET 0.000003 -44.423679 -3.043532
				CHANNELS 6 Xposition Yposition Zposition Xrotation Yrotation Zrotation
				JOINT mixamorig:RightToeBase
				{
					OFFSET -0.000002 -8.728671 10.710558
					CHANNELS 6 Xposition Yposition Zposition Xrotation Yrotation Zrotation
					JOINT mixamorig:RightToe_End
					{
						OFFSET -0.000001 -0.000679 9.278119
						CHANNELS 6 Xposition Yposition Zposition Xrotation Yrotation Zrotation
						End Site
						{
							OFFSET 0.000000 -0.067690 927.812134
						}
					}
				}
			}
		}
	}
	JOINT mixamorig:LeftUpLeg
	{
		OFFSET 8.207793 -6.751686 -1.599556
		CHANNELS 6 Xposition Yposition Zposition Xrotation Yrotation Zrotation
		JOINT mixamorig:LeftLeg
		{
			OFFSET -0.000004 -44.370014 0.346954
			CHANNELS 6 Xposition Yposition Zposition Xrotation Yrotation Zrotation
			JOINT mixamorig:LeftFoot
			{
				OFFSET -0.000001 -44.423672 -3.044401
				CHANNELS 6 Xposition Yposition Zposition Xrotation Yrotation Zrotation
				JOINT mixamorig:LeftToeBase
				{
					OFFSET -0.000002 -8.728669 10.710558
					CHANNELS 6 Xposition Yposition Zposition Xrotation Yrotation Zrotation
					JOINT mixamorig:LeftToe_End
					{
						OFFSET -0.000003 -0.000679 9.278133
						CHANNELS 6 Xposition Yposition Zposition Xrotation Yrotation Zrotation
						End Site
						{
							OFFSET 0.000000 -0.068021 927.813477
						}
					}
				}
			}
		}
	}
}
MOTION
Frames: 3
Frame Time: 0.033333
0.000006 104.270477 1.554256 0.000010 0.000003 -0.000113 -0.000005 10.181587 0.131522 0.000001 -0.000003 0.000084 -0.000000 9.893967 -1.470711 0.000001 0.000000 -0.000000 -0.000000 9.220802 -1.370642 0.000000 -0.000000 -0.000000 0.000001 16.740433 -2.049030 0.000000 -0.000000 -0.000000 0.000000 9.617859 1.685014 0.000000 0.000000 0.000000 0.000002 22.037384 7.501101 0.000000 -0.000000 0.000000 -4.569968 11.014880 -2.160881 0.000008 0.000001 -0.000038 -10.592875 -0.524753 -2.231907 75.476978 27.612319 -21.537116 -27.841520 0.000013 0.000536 -55.032733 107.944877 71.226032 -28.328823 0.000005 0.000033 -0.000324 -0.000045 0.000008 -2.464417 -1.573742 2.682346 -49.052602 -171.219851 -12.907837 -3.215291 -1.872635 1.924667 155.921334 29.587727 -8.839695 -2.654936 -1.527910 1.513088 147.357397 26.366827 -41.995544 -2.018831 -1.151997 1.108070 -0.000001 -0.000003 0.000004 -9.108379 -0.517567 2.260067 86.941737 17.033778 -16.204690 -3.700046 0.000321 0.001452 82.781606 13.056603 -11.497564 -2.850076 0.000337 -0.000335 81.912567 10.810302 -9.388844 -2.772164 -0.000013 -0.000018 0.000000 -0.000002 0.000000 -9.532557 0.000266 0.000175 80.532759 13.141021 -11.262728 -3.700043 0.000325 0.003889 79.839707 8.907278 -7.380843 -2.950063 0.000313 -0.001871 80.421994 10.761048 -9.098988 -2.946625 0.000000 -0.000154 0.000001 -0.000000 0.000000 -9.103671 -0.042752 -1.864936 79.157193 14.913040 -12.313331 -3.379300 0.000319 -0.000883 79.091309 6.897721 -5.711330 -2.889739 0.000336 0.000578 82.286779 6.482816 -5.705006 -2.638817 -0.000001 0.000943 0.000003 -0.000000 0.000000 -8.076731 -0.486393 -3.806073 77.607970 14.867283 -11.859178 -3.600024 0.000279 -0.003570 81.028474 6.233922 -5.033273 -2.100017 0.000309 -0.005525 82.641368 5.924587 -5.015802 -2.115775 -0.000040 -0.003679 0.000001 -0.000000 -0.000003 4.570446 11.014691 -2.160851 -0.000018 0.000010 -0.000021 10.592387 -0.524482 -2.232334 74.597011 -7.876566 6.004078 27.841808 0.000071 -0.000227 94.332029 -69.151881 73.255862 28.328838 -0.000029 0.000019 0.000023 -0.000089 0.000000 2.466160 -1.576154 2.681885 -11.978974 154.823586 -59.620783 3.217831 -1.871784 1.916391 162.817121 -27.551725 18.543069 2.656111 -1.528665 1.514456 135.205548 -29.086890 51.696828 2.020887 -1.154066 1.115145 0.000001 0.000002 0.000004 9.109384 -0.517870 2.259733 80.984795 -15.302718 13.076711 3.700041 0.000133 -0.000473 78.566997 -13.107517 10.751507 2.850039 0.000183 0.000192 77.877906 -11.495856 9.298682 2.774869 -0.000017 -0.000027 0.000000 0.000001 0.000001 9.533463 0.000199 -0.000079 80.714661 -14.286583 12.150526 3.700038 0.000160 -0.000387 83.552570 -11.769767 10.519689 2.950064 0.000153 -0.000179 83.352630 -15.781012 14.069783 2.952875 -0.000028 0.000062 0.000001 -0.000000 -0.000001 9.104574 -0.042873 -1.865242 76.881647 -13.764367 10.946455 3.150055 0.000193 -0.000093 85.496026 -11.579860 10.710541 2.950033 0.000167 -0.000084 88.322235 -13.825829 13.432232 2.644326 0.000015 0.000058 -0.000001 0.000001 -0.000000 8.077832 -0.486761 -3.806402 65.495640 -15.780295 10.573327 3.599993 0.000157 0.014567 69.421155 -14.004284 10.088496 2.100033 0.000161 0.007556 74.817448 -13.366921 10.620788 2.125502 -0.000017 0.007516 -0.000005 0.000005 0.000000 -8.207786 -6.751667 -1.599560 -0.077001 -0.000003 0.000080 -0.000002 -44.370110 0.345938 0.153719 -0.000000 -0.000000 0.000000 -44.423679 -3.043532 -0.076700 0.000000 -0.000002 -0.000006 -8.728667 10.710559 -0.000009 -0.000000 -0.000000 -0.000001 -0.000679 9.278123 0.000000 -0.000000 -0.000000 8.207792 -6.751710 -1.599556 -0.074518 -0.000003 0.000081 -0.000002 -44.370014 0.346960 0.148822 0.000002 0.000000 -0.000001 -44.423664 -3.044403 -0.074314 0.000000 -0.000002 -0.000004 -8.728671 10.710558 0.000007 -0.000000 -0.000000 0.000000 -0.000680 9.278137 -0.000000 0.000000 -0.000001 
0.000006 104.270477 1.554256 0.000010 0.000003 -0.000113 -0.000005 10.181587 0.131522 0.000001 -0.000003 0.000084 -0.000000 9.893967 -1.470711 0.000001 0.000000 -0.000000 -0.000000 9.220802 -1.370642 0.000000 -0.000000 -0.000000 0.000001 16.740433 -2.049030 0.000000 -0.000000 -0.000000 0.000000 9.617859 1.685014 0.000000 0.000000 0.000000 0.000002 22.037384 7.501101 0.000000 -0.000000 0.000000 -4.569968 11.014880 -2.160881 0.000008 0.000001 -0.000038 -10.592873 -0.524787 -2.231879 75.986305 34.777964 -27.490979 -27.841518 -0.000002 0.000550 -52.205018 106.850639 66.875625 -28.328810 0.000005 0.000026 -0.000319 -0.000044 0.000006 -2.464490 -1.573671 2.682290 -54.717110 -181.587259 -35.920822 -3.215286 -1.872613 1.924660 153.314538 30.087571 -5.052465 -2.654960 -1.527869 1.513069 142.953196 27.609300 -38.974292 -2.018823 -1.152018 1.108063 -0.000004 -0.000007 0.000000 -9.108394 -0.517551 2.260049 85.744009 15.943625 -14.857721 -3.700061 0.000307 0.001460 81.287140 13.497168 -11.580010 -2.850059 0.000348 -0.000331 79.844782 11.210540 -9.389101 -2.772176 -0.000015 -0.000022 0.000001 0.000001 -0.000001 -9.532570 0.000269 0.000155 78.589243 12.625058 -10.458644 -3.700060 0.000317 0.003902 78.152247 10.520670 -8.474877 -2.950043 0.000319 -0.001866 80.187083 11.646898 -9.809171 -2.946640 0.000001 -0.000151 0.000001 -0.000000 0.000000 -9.103701 -0.042760 -1.864936 78.124175 15.191246 -12.317619 -3.379319 0.000312 -0.000889 78.448384 7.686879 -6.291671 -2.889733 0.000346 0.000561 84.961693 6.206607 -5.725702 -2.638804 -0.000020 0.000939 -0.000003 0.000002 0.000001 -8.076751 -0.486385 -3.806073 76.248612 15.309102 -11.924102 -3.600032 0.000259 -0.003565 79.304500 5.542187 -4.311024 -2.100013 0.000314 -0.005550 81.557274 3.789281 -3.084322 -2.115764 -0.000038 -0.003676 0.000000 0.000001 -0.000002 4.570446 11.014691 -2.160851 -0.000018 0.000010 -0.000021 10.592381 -0.524484 -2.232327 74.823992 -5.557824 4.252601 27.841816 0.000072 -0.000195 95.528385 -72.602083 77.955223 28.328856 -0.000028 0.000027 0.000021 -0.000089 -0.000000 2.466232 -1.576061 2.681835 2.218118 168.825993 -95.286357 3.217873 -1.871853 1.916419 165.298760 -20.859408 42.944565 2.656116 -1.528686 1.514492 139.447983 -27.363502 61.401140 2.020891 -1.154084 1.115132 -0.000002 0.000006 0.000006 9.109387 -0.517897 2.259752 82.065966 -19.906889 17.355873 3.700031 0.000144 -0.000467 79.550489 -11.693570 9.758485 2.850032 0.000171 0.000188 78.139160 -8.587915 6.975087 2.774872 -0.000029 -0.000026 -0.000000 -0.000000 -0.000000 9.533459 0.000188 -0.000079 81.704150 -18.403615 15.941358 3.700035 0.000188 -0.000380 84.337728 -9.245613 8.375184 2.950065 0.000186 -0.000211 84.748352 -9.625111 8.787041 2.952859 -0.000030 0.000069 0.000001 0.000002 -0.000001 9.104592 -0.042884 -1.865219 80.048151 -17.793355 14.980193 3.150030 0.000202 -0.000094 85.741086 -11.106606 10.316390 2.950003 0.000182 -0.000098 87.122799 -9.692763 9.221578 2.644326 0.000015 0.000058 -0.000001 -0.000003 -0.000000 8.077841 -0.486760 -3.806383 71.639020 -19.078742 14.275051 3.600003 0.000141 0.014569 72.647627 -16.086668 12.255082 2.100049 0.000164 0.007539 74.191284 -12.278405 9.669410 2.125505 -0.000016 0.007515 -0.000003 -0.000001 -0.000000 -8.207786 -6.751667 -1.599560 -0.077001 -0.000003 0.000080 -0.000002 -44.370110 0.345938 0.153719 -0.000000 -0.000000 0.000000 -44.423679 -3.043532 -0.076700 0.000000 -0.000002 -0.000006 -8.728667 10.710559 -0.000009 -0.000000 -0.000000 -0.000001 -0.000679 9.278123 0.000000 -0.000000 -0.000000 8.207792 -6.751710 -1.599556 -0.074518 -0.000003 0.000081 -0.000002 -44.370014 0.346960 0.148822 0.000002 0.000000 -0.000001 -44.423664 -3.044403 -0.074314 0.000000 -0.000002 -0.000004 -8.728671 10.710558 0.000007 -0.000000 -0.000000 0.000000 -0.000680 9.278137 -0.000000 0.000000 -0.000001 
0.000006 104.270477 1.554256 0.000010 0.000003 -0.000113 -0.000005 10.181587 0.131522 0.000001 -0.000003 0.000084 -0.000000 9.893967 -1.470711 0.000001 0.000000 -0.000000 -0.000000 9.220802 -1.370642 0.000000 -0.000000 -0.000000 0.000001 16.740433 -2.049030 0.000000 -0.000000 -0.000000 0.000000 9.617859 1.685014 0.000000 0.000000 0.000000 0.000002 22.037384 7.501101 0.000000 -0.000000 0.000000 -4.569968 11.014880 -2.160881 0.000008 0.000001 -0.000038 -10.592851 -0.524800 -2.231826 75.777923 44.150292 -35.030240 -27.841516 0.000002 0.000538 -50.756942 104.184557 62.698780 -28.328844 -0.000007 0.000031 -0.000320 -0.000045 0.000010 -2.464466 -1.573663 2.682264 -54.856418 -182.178699 -36.938653 -3.215276 -1.872599 1.924652 153.640584 30.185512 -4.545908 -2.654944 -1.527889 1.513072 143.876009 27.423117 -38.838491 -2.018823 -1.151998 1.108060 -0.000003 -0.000005 0.000000 -9.108351 -0.517562 2.260056 85.005447 16.413698 -15.101270 -3.700067 0.000302 0.001448 81.421947 13.496453 -11.606797 -2.850075 0.000332 -0.000334 79.716388 11.133184 -9.303081 -2.772176 -0.000001 -0.000020 -0.000002 0.000001 -0.000001 -9.532545 0.000268 0.000169 78.360110 13.128641 -10.829122 -3.700062 0.000309 0.003893 78.282157 10.677159 -8.622028 -2.950053 0.000325 -0.001866 80.687060 11.736699 -9.972415 -2.946618 -0.000000 -0.000156 0.000001 -0.000000 0.000001 -9.103669 -0.042761 -1.864931 78.570801 15.768071 -12.889789 -3.379326 0.000295 -0.000892 78.462283 7.870337 -6.443290 -2.889771 0.000342 0.000585 85.563310 6.249889 -5.826341 -2.638802 -0.000010 0.000940 0.000006 -0.000001 0.000000 -8.076718 -0.486400 -3.806068 76.488850 15.672168 -12.262981 -3.600027 0.000278 -0.003576 79.026552 5.881797 -4.568658 -2.099997 0.000315 -0.005561 82.027498 4.073646 -3.356582 -2.115752 -0.000027 -0.003677 -0.000002 0.000003 -0.000004 4.570446 11.014691 -2.160851 -0.000018 0.000010 -0.000021 10.592415 -0.524467 -2.232376 73.840595 -18.935241 14.284061 27.841814 0.000031 -0.000196 97.416188 -75.252873 82.545520 28.328850 -0.000043 0.000017 0.000021 -0.000087 -0.000001 2.466264 -1.575958 2.681795 14.361714 182.008764 -124.428056 3.217898 -1.871878 1.916448 165.323376 -17.276349 54.764518 2.656097 -1.528679 1.514489 139.215566 -27.397941 62.927954 2.020887 -1.154065 1.115137 0.000002 -0.000000 0.000001 9.109385 -0.517870 2.259727 83.663213 -21.009290 18.835457 3.700033 0.000160 -0.000487 81.334658 -12.317820 10.607936 2.850045 0.000177 0.000204 80.000052 -8.910797 7.480461 2.774894 -0.000046 -0.000029 0.000000 0.000001 0.000000 9.533479 0.000181 -0.000080 82.820968 -19.952482 17.628242 3.700040 0.000185 -0.000391 86.282870 -9.681737 9.073346 2.950040 0.000164 -0.000213 87.265878 -9.416305 8.981894 2.952859 -0.000045 0.000064 -0.000001 -0.000001 -0.000001 9.104586 -0.042872 -1.865214 80.847658 -19.503708 16.658664 3.150039 0.000199 -0.000090 86.887779 -12.175924 11.538075 2.950026 0.000189 -0.000099 87.738821 -9.809671 9.433375 2.644326 0.000029 0.000057 -0.000001 0.000002 -0.000000 8.077843 -0.486753 -3.806396 71.835668 -20.578995 15.435106 3.599993 0.000147 0.014593 72.733155 -17.452264 13.295448 2.100021 0.000162 0.007532 74.798665 -12.935208 10.283371 2.125512 -0.000014 0.007515 -0.000001 -0.000001 -0.000000 -8.207786 -6.751667 -1.599560 -0.077001 -0.000003 0.000080 -0.000002 -44.370110 0.345938 0.153719 -0.000000 -0.000000 0.000000 -44.423679 -3.043532 -0.076700 0.000000 -0.000002 -0.000006 -8.728667 10.710559 -0.000009 -0.000000 -0.000000 -0.000001 -0.000679 9.278123 0.000000 -0.000000 -0.000000 8.207792 -6.751710 -1.599556 -0.074518 -0.000003 0.000081 -0.000002 -44.370014 0.346960 0.148822 0.000002 0.000000 -0.000001 -44.423664 -3.044403 -0.074314 0.000000 -0.000002 -0.000004 -8.728671 10.710558 0.000007 -0.000000 -0.000000 0.000000 -0.000680 9.278137 -0.000000 0.000000 -0.000001 
